ffmpeg started on 2025-06-03 at 19:51:27
Report written to "D:\Convert\FFMetrics\reports\ssim_report-6.txt"
Log level: 32
Command line:
ffmpeg -hide_banner -nostdin -i "G:\\\xc0\xed\xe8\xec\xe5\\\xce\xed\xe3\xee\xe8\xed\xe3\xe8\\!_36_\xce\xf1\xe5\xed\xfc_2024\\DreamCast\\\xc1\xe0\xf8\xed\xff \xc1\xee\xe3\xe0\\\xd2\xc2-2\\[DC] Kami no Tou - Ouji no Kikan - 14_Telegram_HEVC.mkv" -i "G:\\\xc0\xed\xe8\xec\xe5\\\xce\xed\xe3\xee\xe8\xed\xe3\xe8\\!_36_\xce\xf1\xe5\xed\xfc_2024\\DreamCast\\\xc1\xe0\xf8\xed\xff \xc1\xee\xe3\xe0\\\xd2\xc2-2\\[DC] Kami no Tou - Ouji no Kikan - 14_Telegram.mp4" -lavfi "[0:v]settb=AVTB,setpts=PTS-STARTPTS,format=pix_fmts=yuv420p10,fps=24000/1001,scale=1920:1080:flags=bicubic[main];[1:v]settb=AVTB,setpts=PTS-STARTPTS,format=pix_fmts=yuv420p,fps=24000/1001,scale=1920:1080:flags=bicubic[ref];[main][ref]ssim=eof_action=endall:stats_file='D\\:/Convert/FFMetrics/logs/ssim_logfile-6.txt'" -f null -
Input #0, matroska,webm, from 'G:\Аниме\Онгоинги\!_36_Осень_2024\DreamCast\Башня Бога\ТВ-2\[DC] Kami no Tou - Ouji no Kikan - 14_Telegram_HEVC.mkv':
  Metadata:
    COMPATIBLE_BRANDS: isomiso2avc1mp41
    MAJOR_BRAND     : isom
    MINOR_VERSION   : 512
    ENCODER         : Lavf61.7.100
  Duration: 00:23:57.74, start: -0.021000, bitrate: 1084 kb/s
  Stream #0:0: Video: hevc (Main 10), yuv420p10le(tv, bt709, progressive), 1920x1080 [SAR 1:1 DAR 16:9], 23.98 fps, 23.98 tbr, 1k tbn (default)
      Metadata:
        HANDLER_NAME    : VideoHandler
        VENDOR_ID       : [0][0][0][0]
        ENCODER         : Lavc61.19.100 libx265
        BPS             : 886822
        DURATION        : 00:23:57.644708333
        NUMBER_OF_FRAMES: 34469
        NUMBER_OF_BYTES : 159366824
        _STATISTICS_WRITING_APP: mkvpropedit v66.0.0 ('Josie') 64-bit
        _STATISTICS_WRITING_DATE_UTC: 2025-05-29 18:17:56
        _STATISTICS_TAGS: BPS DURATION NUMBER_OF_FRAMES NUMBER_OF_BYTES
  Stream #0:1: Audio: aac (LC), 48000 Hz, stereo, fltp (default)
      Metadata:
        HANDLER_NAME    : SoundHandler
        VENDOR_ID       : [0][0][0][0]
        ENCODER         : Lavc61.19.100 aac
        BPS             : 193898
        DURATION        : 00:23:57.738000000
        NUMBER_OF_FRAMES: 67395
        NUMBER_OF_BYTES : 34846891
        _STATISTICS_WRITING_APP: mkvpropedit v66.0.0 ('Josie') 64-bit
        _STATISTICS_WRITING_DATE_UTC: 2025-05-29 18:17:56
        _STATISTICS_TAGS: BPS DURATION NUMBER_OF_FRAMES NUMBER_OF_BYTES
Input #1, mov,mp4,m4a,3gp,3g2,mj2, from 'G:\Аниме\Онгоинги\!_36_Осень_2024\DreamCast\Башня Бога\ТВ-2\[DC] Kami no Tou - Ouji no Kikan - 14_Telegram.mp4':
  Metadata:
    major_brand     : isom
    minor_version   : 512
    compatible_brands: isomiso2avc1mp41
    encoder         : Lavf61.1.100
  Duration: 00:23:57.71, start: 0.000000, bitrate: 3484 kb/s
  Stream #1:0[0x1](und): Video: h264 (High) (avc1 / 0x31637661), yuv420p(tv, bt709, progressive), 1920x1080 [SAR 1:1 DAR 16:9], 3336 kb/s, 23.98 fps, 23.98 tbr, 24k tbn (default)
      Metadata:
        handler_name    : VideoHandler
        vendor_id       : [0][0][0][0]
        encoder         : Lavc61.3.100 h264_qsv
  Stream #1:1[0x2](und): Audio: aac (HE-AACv2) (mp4a / 0x6134706D), 48000 Hz, stereo, fltp, 144 kb/s (default)
      Metadata:
        handler_name    : SoundHandler
        vendor_id       : [0][0][0][0]
Stream mapping:
  Stream #0:0 (hevc) -> settb:default
  Stream #1:0 (h264) -> settb:default
  ssim:default -> Stream #0:0 (wrapped_avframe)
  Stream #0:1 -> #0:1 (aac (native) -> pcm_s16le (native))
Output #0, null, to 'pipe:':
  Metadata:
    COMPATIBLE_BRANDS: isomiso2avc1mp41
    MAJOR_BRAND     : isom
    MINOR_VERSION   : 512
    encoder         : Lavf61.7.100
  Stream #0:0: Video: wrapped_avframe, yuv420p10le(tv, bt709, progressive), 1920x1080 [SAR 1:1 DAR 16:9], q=2-31, 200 kb/s, 23.98 fps, 23.98 tbn
      Metadata:
        encoder         : Lavc61.19.100 wrapped_avframe
  Stream #0:1: Audio: pcm_s16le, 48000 Hz, stereo, s16, 1536 kb/s (default)
      Metadata:
        HANDLER_NAME    : SoundHandler
        VENDOR_ID       : [0][0][0][0]
        _STATISTICS_TAGS: BPS DURATION NUMBER_OF_FRAMES NUMBER_OF_BYTES
        BPS             : 193898
        DURATION        : 00:23:57.738000000
        NUMBER_OF_FRAMES: 67395
        NUMBER_OF_BYTES : 34846891
        _STATISTICS_WRITING_APP: mkvpropedit v66.0.0 ('Josie') 64-bit
        _STATISTICS_WRITING_DATE_UTC: 2025-05-29 18:17:56
        encoder         : Lavc61.19.100 pcm_s16le
frame=  178 fps=0.0 q=-0.0 size=N/A time=00:00:07.42 bitrate=N/A speed=14.4x    frame=  358 fps=345 q=-0.0 size=N/A time=00:00:14.93 bitrate=N/A speed=14.4x    frame=  558 fps=361 q=-0.0 size=N/A time=00:00:23.27 bitrate=N/A speed=15.1x    frame=  828 fps=400 q=-0.0 size=N/A time=00:00:34.53 bitrate=N/A speed=16.7x    frame= 1107 fps=430 q=-0.0 size=N/A time=00:00:46.17 bitrate=N/A speed=17.9x    frame= 1394 fps=450 q=-0.0 size=N/A time=00:00:58.14 bitrate=N/A speed=18.8x    frame= 1662 fps=461 q=-0.0 size=N/A time=00:01:09.31 bitrate=N/A speed=19.2x    frame= 1910 fps=463 q=-0.0 size=N/A time=00:01:19.66 bitrate=N/A speed=19.3x    frame= 2158 fps=465 q=-0.0 size=N/A time=00:01:30.00 bitrate=N/A speed=19.4x    frame= 2414 fps=468 q=-0.0 size=N/A time=00:01:40.68 bitrate=N/A speed=19.5x    frame= 2641 fps=466 q=-0.0 size=N/A time=00:01:50.15 bitrate=N/A speed=19.4x    frame= 2880 fps=465 q=-0.0 size=N/A time=00:02:00.12 bitrate=N/A speed=19.4x    frame= 3094 fps=462 q=-0.0 size=N/A time=00:02:09.04 bitrate=N/A speed=19.3x    frame= 3328 fps=461 q=-0.0 size=N/A time=00:02:18.80 bitrate=N/A speed=19.2x    frame= 3547 fps=459 q=-0.0 size=N/A time=00:02:27.93 bitrate=N/A speed=19.1x    frame= 3805 fps=461 q=-0.0 size=N/A time=00:02:38.70 bitrate=N/A speed=19.2x    frame= 4034 fps=460 q=-0.0 size=N/A time=00:02:48.25 bitrate=N/A speed=19.2x    frame= 4244 fps=457 q=-0.0 size=N/A time=00:02:57.01 bitrate=N/A speed=19.1x    frame= 4459 fps=455 q=-0.0 size=N/A time=00:03:05.97 bitrate=N/A speed=  19x    frame= 4688 fps=455 q=-0.0 size=N/A time=00:03:15.52 bitrate=N/A speed=  19x    frame= 4952 fps=457 q=-0.0 size=N/A time=00:03:26.53 bitrate=N/A speed=19.1x    frame= 5218 fps=460 q=-0.0 size=N/A time=00:03:37.63 bitrate=N/A speed=19.2x    frame= 5491 fps=463 q=-0.0 size=N/A time=00:03:49.02 bitrate=N/A speed=19.3x    frame= 5745 fps=464 q=-0.0 size=N/A time=00:03:59.61 bitrate=N/A speed=19.4x    frame= 6034 fps=468 q=-0.0 size=N/A time=00:04:11.66 bitrate=N/A speed=19.5x    frame= 6309 fps=471 q=-0.0 size=N/A time=00:04:23.13 bitrate=N/A speed=19.6x    frame= 6593 fps=473 q=-0.0 size=N/A time=00:04:34.98 bitrate=N/A speed=19.7x    frame= 6863 fps=475 q=-0.0 size=N/A time=00:04:46.24 bitrate=N/A speed=19.8x    frame= 7148 fps=478 q=-0.0 size=N/A time=00:04:58.13 bitrate=N/A speed=19.9x    frame= 7435 fps=481 q=-0.0 size=N/A time=00:05:10.10 bitrate=N/A speed=20.1x    frame= 7723 fps=483 q=-0.0 size=N/A time=00:05:22.11 bitrate=N/A speed=20.2x    frame= 7985 fps=484 q=-0.0 size=N/A time=00:05:33.04 bitrate=N/A speed=20.2x    frame= 8239 fps=484 q=-0.0 size=N/A time=00:05:43.63 bitrate=N/A speed=20.2x    frame= 8487 fps=484 q=-0.0 size=N/A time=00:05:53.97 bitrate=N/A speed=20.2x    frame= 8729 fps=484 q=-0.0 size=N/A time=00:06:04.07 bitrate=N/A speed=20.2x    frame= 8993 fps=485 q=-0.0 size=N/A time=00:06:15.08 bitrate=N/A speed=20.2x    frame= 9278 fps=486 q=-0.0 size=N/A time=00:06:26.96 bitrate=N/A speed=20.3x    frame= 9522 fps=486 q=-0.0 size=N/A time=00:06:37.14 bitrate=N/A speed=20.3x    frame= 9791 fps=487 q=-0.0 size=N/A time=00:06:48.36 bitrate=N/A speed=20.3x    frame=10073 fps=488 q=-0.0 size=N/A time=00:07:00.12 bitrate=N/A speed=20.4x    frame=10361 fps=490 q=-0.0 size=N/A time=00:07:12.14 bitrate=N/A speed=20.4x    frame=10654 fps=492 q=-0.0 size=N/A time=00:07:24.36 bitrate=N/A speed=20.5x    frame=10940 fps=493 q=-0.0 size=N/A time=00:07:36.28 bitrate=N/A speed=20.6x    frame=11208 fps=494 q=-0.0 size=N/A time=00:07:47.46 bitrate=N/A speed=20.6x    frame=11456 fps=494 q=-0.0 size=N/A time=00:07:57.81 bitrate=N/A speed=20.6x    frame=11707 fps=494 q=-0.0 size=N/A time=00:08:08.27 bitrate=N/A speed=20.6x    frame=11993 fps=495 q=-0.0 size=N/A time=00:08:20.20 bitrate=N/A speed=20.6x    frame=12249 fps=495 q=-0.0 size=N/A time=00:08:30.88 bitrate=N/A speed=20.6x    frame=12535 fps=496 q=-0.0 size=N/A time=00:08:42.81 bitrate=N/A speed=20.7x    frame=12769 fps=495 q=-0.0 size=N/A time=00:08:52.57 bitrate=N/A speed=20.7x    frame=13050 fps=496 q=-0.0 size=N/A time=00:09:04.29 bitrate=N/A speed=20.7x    frame=13277 fps=495 q=-0.0 size=N/A time=00:09:13.76 bitrate=N/A speed=20.7x    frame=13565 fps=496 q=-0.0 size=N/A time=00:09:25.77 bitrate=N/A speed=20.7x    frame=13806 fps=496 q=-0.0 size=N/A time=00:09:35.82 bitrate=N/A speed=20.7x    frame=14095 fps=497 q=-0.0 size=N/A time=00:09:47.87 bitrate=N/A speed=20.7x    frame=14336 fps=497 q=-0.0 size=N/A time=00:09:57.93 bitrate=N/A speed=20.7x    frame=14446 fps=491 q=-0.0 size=N/A time=00:10:02.51 bitrate=N/A speed=20.5x    frame=14667 fps=490 q=-0.0 size=N/A time=00:10:11.73 bitrate=N/A speed=20.5x    frame=14835 fps=488 q=-0.0 size=N/A time=00:10:18.74 bitrate=N/A speed=20.3x    frame=15096 fps=488 q=-0.0 size=N/A time=00:10:29.62 bitrate=N/A speed=20.4x    frame=15347 fps=488 q=-0.0 size=N/A time=00:10:40.09 bitrate=N/A speed=20.3x    frame=15615 fps=489 q=-0.0 size=N/A time=00:10:51.27 bitrate=N/A speed=20.4x    frame=15903 fps=489 q=-0.0 size=N/A time=00:11:03.28 bitrate=N/A speed=20.4x    frame=16166 fps=490 q=-0.0 size=N/A time=00:11:14.25 bitrate=N/A speed=20.4x    frame=16439 fps=490 q=-0.0 size=N/A time=00:11:25.64 bitrate=N/A speed=20.5x    frame=16711 fps=491 q=-0.0 size=N/A time=00:11:36.98 bitrate=N/A speed=20.5x    frame=16990 fps=492 q=-0.0 size=N/A time=00:11:48.62 bitrate=N/A speed=20.5x    frame=17259 fps=492 q=-0.0 size=N/A time=00:11:59.84 bitrate=N/A speed=20.5x    frame=17511 fps=492 q=-0.0 size=N/A time=00:12:10.35 bitrate=N/A speed=20.5x    frame=17786 fps=493 q=-0.0 size=N/A time=00:12:21.82 bitrate=N/A speed=20.6x    frame=18023 fps=492 q=-0.0 size=N/A time=00:12:31.70 bitrate=N/A speed=20.5x    frame=18271 fps=492 q=-0.0 size=N/A time=00:12:42.05 bitrate=N/A speed=20.5x    frame=18558 fps=493 q=-0.0 size=N/A time=00:12:54.02 bitrate=N/A speed=20.6x    frame=18812 fps=493 q=-0.0 size=N/A time=00:13:04.61 bitrate=N/A speed=20.6x    frame=19096 fps=494 q=-0.0 size=N/A time=00:13:16.46 bitrate=N/A speed=20.6x    frame=19354 fps=494 q=-0.0 size=N/A time=00:13:27.22 bitrate=N/A speed=20.6x    frame=19567 fps=493 q=-0.0 size=N/A time=00:13:36.10 bitrate=N/A speed=20.6x    frame=19768 fps=492 q=-0.0 size=N/A time=00:13:44.49 bitrate=N/A speed=20.5x    frame=20004 fps=491 q=-0.0 size=N/A time=00:13:54.33 bitrate=N/A speed=20.5x    frame=20272 fps=492 q=-0.0 size=N/A time=00:14:05.51 bitrate=N/A speed=20.5x    frame=20561 fps=492 q=-0.0 size=N/A time=00:14:17.56 bitrate=N/A speed=20.5x    frame=20836 fps=493 q=-0.0 size=N/A time=00:14:29.03 bitrate=N/A speed=20.6x    frame=21123 fps=493 q=-0.0 size=N/A time=00:14:41.00 bitrate=N/A speed=20.6x    frame=21374 fps=493 q=-0.0 size=N/A time=00:14:51.47 bitrate=N/A speed=20.6x    frame=21653 fps=494 q=-0.0 size=N/A time=00:15:03.11 bitrate=N/A speed=20.6x    frame=21917 fps=494 q=-0.0 size=N/A time=00:15:14.12 bitrate=N/A speed=20.6x    frame=22172 fps=494 q=-0.0 size=N/A time=00:15:24.75 bitrate=N/A speed=20.6x    frame=22445 fps=495 q=-0.0 size=N/A time=00:15:36.14 bitrate=N/A speed=20.6x    frame=22732 fps=495 q=-0.0 size=N/A time=00:15:48.11 bitrate=N/A speed=20.7x    frame=22998 fps=495 q=-0.0 size=N/A time=00:15:59.20 bitrate=N/A speed=20.7x    frame=23285 fps=496 q=-0.0 size=N/A time=00:16:11.17 bitrate=N/A speed=20.7x    frame=23551 fps=496 q=-0.0 size=N/A time=00:16:22.27 bitrate=N/A speed=20.7x    frame=23824 fps=497 q=-0.0 size=N/A time=00:16:33.65 bitrate=N/A speed=20.7x    frame=24090 fps=497 q=-0.0 size=N/A time=00:16:44.75 bitrate=N/A speed=20.7x    frame=24381 fps=498 q=-0.0 size=N/A time=00:16:56.89 bitrate=N/A speed=20.8x    frame=24666 fps=498 q=-0.0 size=N/A time=00:17:08.77 bitrate=N/A speed=20.8x    frame=24951 fps=499 q=-0.0 size=N/A time=00:17:20.66 bitrate=N/A speed=20.8x    frame=25228 fps=499 q=-0.0 size=N/A time=00:17:32.21 bitrate=N/A speed=20.8x    frame=25513 fps=500 q=-0.0 size=N/A time=00:17:44.10 bitrate=N/A speed=20.8x    frame=25802 fps=500 q=-0.0 size=N/A time=00:17:56.15 bitrate=N/A speed=20.9x    frame=26082 fps=501 q=-0.0 size=N/A time=00:18:07.83 bitrate=N/A speed=20.9x    frame=26349 fps=501 q=-0.0 size=N/A time=00:18:18.97 bitrate=N/A speed=20.9x    frame=26647 fps=502 q=-0.0 size=N/A time=00:18:31.40 bitrate=N/A speed=20.9x    frame=26928 fps=502 q=-0.0 size=N/A time=00:18:43.12 bitrate=N/A speed=20.9x    frame=27216 fps=502 q=-0.0 size=N/A time=00:18:55.13 bitrate=N/A speed=  21x    frame=27503 fps=503 q=-0.0 size=N/A time=00:19:07.10 bitrate=N/A speed=  21x    frame=27799 fps=504 q=-0.0 size=N/A time=00:19:19.44 bitrate=N/A speed=  21x    frame=28080 fps=504 q=-0.0 size=N/A time=00:19:31.17 bitrate=N/A speed=  21x    frame=28351 fps=504 q=-0.0 size=N/A time=00:19:42.47 bitrate=N/A speed=  21x    frame=28633 fps=505 q=-0.0 size=N/A time=00:19:54.23 bitrate=N/A speed=21.1x    frame=28894 fps=505 q=-0.0 size=N/A time=00:20:05.12 bitrate=N/A speed=  21x    frame=29165 fps=505 q=-0.0 size=N/A time=00:20:16.42 bitrate=N/A speed=21.1x    frame=29452 fps=505 q=-0.0 size=N/A time=00:20:28.39 bitrate=N/A speed=21.1x    frame=29725 fps=506 q=-0.0 size=N/A time=00:20:39.78 bitrate=N/A speed=21.1x    frame=29995 fps=506 q=-0.0 size=N/A time=00:20:51.04 bitrate=N/A speed=21.1x    frame=30269 fps=506 q=-0.0 size=N/A time=00:21:02.46 bitrate=N/A speed=21.1x    frame=30530 fps=506 q=-0.0 size=N/A time=00:21:13.35 bitrate=N/A speed=21.1x    frame=30792 fps=506 q=-0.0 size=N/A time=00:21:24.28 bitrate=N/A speed=21.1x    frame=31045 fps=506 q=-0.0 size=N/A time=00:21:34.83 bitrate=N/A speed=21.1x    frame=31281 fps=505 q=-0.0 size=N/A time=00:21:44.67 bitrate=N/A speed=21.1x    frame=31543 fps=505 q=-0.0 size=N/A time=00:21:55.60 bitrate=N/A speed=21.1x    frame=31775 fps=505 q=-0.0 size=N/A time=00:22:05.28 bitrate=N/A speed=21.1x    frame=32028 fps=505 q=-0.0 size=N/A time=00:22:15.83 bitrate=N/A speed=21.1x    frame=32277 fps=505 q=-0.0 size=N/A time=00:22:26.21 bitrate=N/A speed=21.1x    frame=32468 fps=504 q=-0.0 size=N/A time=00:22:34.18 bitrate=N/A speed=  21x    frame=32618 fps=502 q=-0.0 size=N/A time=00:22:40.44 bitrate=N/A speed=20.9x    frame=32770 fps=500 q=-0.0 size=N/A time=00:22:46.78 bitrate=N/A speed=20.9x    frame=32924 fps=499 q=-0.0 size=N/A time=00:22:53.20 bitrate=N/A speed=20.8x    frame=33072 fps=497 q=-0.0 size=N/A time=00:22:59.37 bitrate=N/A speed=20.7x    frame=33251 fps=496 q=-0.0 size=N/A time=00:23:06.84 bitrate=N/A speed=20.7x    frame=33425 fps=495 q=-0.0 size=N/A time=00:23:14.10 bitrate=N/A speed=20.6x    frame=33576 fps=493 q=-0.0 size=N/A time=00:23:20.39 bitrate=N/A speed=20.6x    frame=33733 fps=492 q=-0.0 size=N/A time=00:23:26.94 bitrate=N/A speed=20.5x    frame=33899 fps=490 q=-0.0 size=N/A time=00:23:33.87 bitrate=N/A speed=20.5x    frame=34038 fps=489 q=-0.0 size=N/A time=00:23:39.66 bitrate=N/A speed=20.4x    frame=34205 fps=488 q=-0.0 size=N/A time=00:23:46.63 bitrate=N/A speed=20.3x    frame=34420 fps=487 q=-0.0 size=N/A time=00:23:55.60 bitrate=N/A speed=20.3x    [Parsed_ssim_10 @ 0000026e76c26180] SSIM Y:0.994888 (22.914029) U:0.995292 (23.271754) V:0.995263 (23.244881) All:0.995018 (23.025780)
[out#0/null @ 0000026e742f4440] video:14811KiB audio:269580KiB subtitle:0KiB other streams:0KiB global headers:0KiB muxing overhead: unknown
frame=34469 fps=487 q=-0.0 Lsize=N/A time=00:23:57.64 bitrate=N/A speed=20.3x    
